<?xml version="1.0" encoding="UTF-8"?>
<svg id="Camada_1" xmlns="http://www.w3.org/2000/svg" xmlns:xlink="http://www.w3.org/1999/xlink" viewBox="0 0 210 240">
  <defs>
    <style>
      .cls-1 {
        fill: #ea7a7a;
      }

      .cls-2 {
        fill: #fff;
      }

      .cls-3 {
        fill: none;
      }

      .cls-4 {
        fill: #dd3a3a;
      }

      .cls-5 {
        clip-path: url(#clippath);
      }
    </style>
    <clipPath id="clippath">
      <polygon class="cls-3" points="0 0 0 240 210 240 210 84 126 0 0 0"/>
    </clipPath>
  </defs>
  <g class="cls-5">
    <rect class="cls-4" y="0" width="210" height="240" rx="13.45" ry="13.45"/>
    <path class="cls-1" d="M126,0h84v84h-70.55c-7.42,0-13.45-6.02-13.45-13.45V0h0Z"/>
    <g>
      <path class="cls-2" d="M28.34,184.33v-53.11h22.99c4.75,0,8.85.77,12.29,2.31,3.44,1.54,6.09,3.75,7.97,6.64,1.87,2.88,2.81,6.32,2.81,10.32s-.94,7.36-2.81,10.24c-1.87,2.88-4.53,5.1-7.97,6.64-3.44,1.54-7.54,2.31-12.29,2.31h-16.16l5.46-5.54v20.18h-12.29ZM40.63,165.51l-5.46-5.84h15.48c3.79,0,6.63-.81,8.5-2.43,1.87-1.62,2.81-3.87,2.81-6.75s-.94-5.21-2.81-6.83c-1.87-1.62-4.7-2.43-8.5-2.43h-15.48l5.46-5.84v30.12Z"/>
      <path class="cls-2" d="M83.11,184.33v-53.11h24.13c5.77,0,10.85,1.1,15.25,3.3,4.4,2.2,7.84,5.27,10.32,9.22,2.48,3.94,3.72,8.62,3.72,14.04s-1.24,10.03-3.72,14c-2.48,3.97-5.92,7.06-10.32,9.26s-9.48,3.3-15.25,3.3h-24.13ZM95.4,174.24h11.23c3.54,0,6.61-.67,9.22-2.01,2.6-1.34,4.63-3.25,6.07-5.73,1.44-2.48,2.16-5.39,2.16-8.72s-.72-6.31-2.16-8.76c-1.44-2.45-3.46-4.35-6.07-5.69-2.61-1.34-5.68-2.01-9.22-2.01h-11.23v32.93Z"/>
      <path class="cls-2" d="M158.07,184.33h-12.29v-53.11h40.13v9.86h-27.84v43.24ZM157.16,155.12h25.49v9.86h-25.49v-9.86Z"/>
    </g>
  </g>
</svg>