<?xml version="1.0" encoding="UTF-8"?>
<svg id="Camada_5" xmlns="http://www.w3.org/2000/svg" xmlns:xlink="http://www.w3.org/1999/xlink" viewBox="0 0 210 240">
  <defs>
    <style>
      .cls-1 {
        fill: #ffda99;
      }

      .cls-2 {
        fill: #9b9b9b;
      }

      .cls-3 {
        fill: none;
      }

      .cls-4 {
        fill: #ddd;
      }

      .cls-5 {
        fill: #ffcf5c;
      }

      .cls-6 {
        clip-path: url(#clippath);
      }
    </style>
    <clipPath id="clippath">
      <polygon class="cls-3" points="0 0 0 240 210 240 210 84 126 0 0 0"/>
    </clipPath>
  </defs>
  <g class="cls-6">
    <rect class="cls-5" width="210" height="240" rx="13.45" ry="13.45"/>
    <path class="cls-1" d="M126,0h84v84h-70.55c-7.42,0-13.45-6.02-13.45-13.45V0h0Z"/>
    <g>
      <rect class="cls-2" x="44.9" y="0" width="18.04" height="18.04" transform="translate(44.9 62.94) rotate(-90)"/>
      <rect class="cls-2" x="62.94" y="18.04" width="18.04" height="18.04" transform="translate(44.9 99.02) rotate(-90)"/>
      <rect class="cls-4" x="62.94" y="0" width="18.04" height="18.04" transform="translate(62.94 80.98) rotate(-90)"/>
      <rect class="cls-2" x="44.9" y="36.08" width="18.04" height="18.04" transform="translate(8.82 99.02) rotate(-90)"/>
      <rect class="cls-4" x="44.9" y="18.04" width="18.04" height="18.04" transform="translate(26.86 80.98) rotate(-90)"/>
      <rect class="cls-2" x="62.94" y="54.12" width="18.04" height="18.04" transform="translate(8.82 135.1) rotate(-90)"/>
      <rect class="cls-4" x="62.94" y="36.08" width="18.04" height="18.04" transform="translate(26.86 117.06) rotate(-90)"/>
      <rect class="cls-2" x="44.9" y="72.16" width="18.04" height="18.04" transform="translate(-27.26 135.1) rotate(-90)"/>
      <rect class="cls-4" x="44.9" y="54.12" width="18.04" height="18.04" transform="translate(-9.22 117.06) rotate(-90)"/>
      <rect class="cls-2" x="62.94" y="90.2" width="18.04" height="18.04" transform="translate(-27.26 171.18) rotate(-90)"/>
      <rect class="cls-4" x="62.94" y="72.16" width="18.04" height="18.04" transform="translate(-9.22 153.14) rotate(-90)"/>
      <rect class="cls-2" x="44.9" y="108.24" width="18.04" height="18.04" transform="translate(-63.34 171.18) rotate(-90)"/>
      <rect class="cls-4" x="44.9" y="90.2" width="18.04" height="18.04" transform="translate(-45.3 153.14) rotate(-90)"/>
      <rect class="cls-2" x="62.94" y="126.28" width="18.04" height="18.04" transform="translate(-63.34 207.26) rotate(-90)"/>
      <rect class="cls-4" x="62.94" y="108.24" width="18.04" height="18.04" transform="translate(-45.3 189.22) rotate(-90)"/>
      <rect class="cls-4" x="44.9" y="126.28" width="18.04" height="18.04" transform="translate(-81.38 189.22) rotate(-90)"/>
      <rect class="cls-2" x="35.88" y="153.34" width="54.12" height="36.08" transform="translate(-108.44 234.32) rotate(-90)"/>
    </g>
  </g>
</svg>