<?xml version="1.0" encoding="UTF-8"?>
<svg id="Camada_8" xmlns="http://www.w3.org/2000/svg" xmlns:xlink="http://www.w3.org/1999/xlink" viewBox="0 0 210 240">
  <defs>
    <style>
      .cls-1 {
        fill: #f9b50b;
      }

      .cls-2 {
        fill: #00afef;
      }

      .cls-3 {
        fill: none;
      }

      .cls-4 {
        fill: #f4e1c3;
      }

      .cls-5 {
        fill: #7c6242;
      }

      .cls-6 {
        fill: #f7dbb5;
      }

      .cls-7 {
        fill: #ffd67b;
      }

      .cls-8 {
        fill: #70d2ed;
      }

      .cls-9 {
        fill: #f4cf98;
      }

      .cls-10 {
        clip-path: url(#clippath);
      }

      .cls-11 {
        fill: #f4e9d7;
      }
    </style>
    <clipPath id="clippath">
      <polygon class="cls-3" points="0 0 0 240 210 240 210 84 126 0 0 0"/>
    </clipPath>
  </defs>
  <g class="cls-10">
    <g>
      <rect class="cls-4" x="6" y="6" width="198" height="228" rx="7.45" ry="7.45"/>
      <path class="cls-9" d="M196.55,12c.8,0,1.45.65,1.45,1.45v213.11c0,.8-.65,1.45-1.45,1.45H13.45c-.8,0-1.45-.65-1.45-1.45V13.45c0-.8.65-1.45,1.45-1.45h183.11M196.55,0H13.45C6.02,0,0,6.02,0,13.45v213.11c0,7.43,6.02,13.45,13.45,13.45h183.11c7.43,0,13.45-6.02,13.45-13.45V13.45C210,6.02,203.98,0,196.55,0h0Z"/>
    </g>
    <g>
      <path class="cls-11" d="M139.45,78c-4.11,0-7.45-3.34-7.45-7.45V6h72v72h-64.55Z"/>
      <path class="cls-6" d="M198,12v60h-58.55c-.8,0-1.45-.65-1.45-1.45V12h60M210,0h-84v70.55c0,7.43,6.02,13.45,13.45,13.45h70.55V0h0Z"/>
    </g>
    <path class="cls-5" d="M29.71,113.09c5.64-1.08,7.92-6.83,9.02-11.84.59-2.69,1.05-5.41,1.65-8.1.86-3.83,2-7.55,3.29-11.26,1.2-3.45,2.6-7.41,5.6-9.73l-1.71-.45c1.96,4.75-2.16,9.99-4.73,13.68-.54.77.35,1.71,1.16,1.5,2.06-.52,3.83-1.82,5.96-2.11l-1.16-.47c2.36,4.08,1.05,8.59-.38,12.74-1.36,3.94-3,7.99-2.3,12.23.08.48.57.7.99.75,2.73.32,4.29-2.05,6.42-3.23l-1.5-.61c1.94,4.69-1.67,10.96,2.56,14.9.35.32.82.38,1.24.16,7.25-3.77,8.35-12.99,14.42-17.9l-1.71-.45c.42,1.8,0,3.88,1.02,5.53s3.2,1.68,4.87,1.62c2.11-.07,4.47-.65,6.53-.06,2.63.75,1.94,3.22,2.26,5.32.12.78,1.22.95,1.71.45,1.72-1.75,3.54-3.39,5.75-4.5,2.57-1.29,5.49-1.78,8.32-2.17l-1.16-.47c.99,1.29.94,2.84,1.18,4.37.07.47.57.71.99.75,3.24.32,6.45-.56,9.63-1.06,2.6-.41,5.76-.68,6.73,2.36.22.68.89.89,1.5.61,4.41-1.98,6.36-6.53,9.83-9.61l-1,.26c1.62.51,2.31,2.32,3.11,3.66.87,1.45,2.05,2.68,3.39,3.7,3.15,2.39,7.26,3.65,11.09,4.41,1.55.31,3.09.44,4.65.13s3.04-.98,4.55-1.46c4.06-1.27,8.29-2.02,12.5-2.58,4.83-.64,9.7-1.01,14.57-1.05,1.32-.01,1.32-2.06,0-2.05-5.38.05-10.76.5-16.09,1.26-5.03.72-9.8,1.91-14.61,3.5-1.92.63-3.66.59-5.63.14-2.5-.56-5.06-1.29-7.36-2.44-2.01-1.01-3.94-2.42-5.15-4.35-1.03-1.65-1.84-3.61-3.67-4.53-1.28-.64-1.89-.04-2.78.88s-1.65,1.92-2.44,2.92c-1.7,2.17-3.43,4.28-6.01,5.44l1.5.61c-1.07-3.34-3.93-4.33-7.21-4.05-3.72.32-7.36,1.61-11.13,1.25l.99.75c-.27-1.73-.27-3.41-1.39-4.86-.32-.41-.65-.54-1.16-.47-3.02.41-6.06,1-8.8,2.37-2.36,1.18-4.33,2.96-6.16,4.82l1.71.45c-.32-2.09.2-4.09-1.62-5.64-1.65-1.41-3.81-1.47-5.87-1.35-1.1.06-2.19.19-3.29.22-.84.03-2.1.14-2.84-.38-.67-.47-.69-1.66-.76-2.41-.09-.95-.09-1.92-.31-2.86-.19-.82-1.15-.91-1.71-.45-5.91,4.77-7.05,13.96-14.01,17.58l1.24.16c-1.86-1.73-1.64-4.56-1.54-6.88s.42-4.89-.5-7.12c-.25-.61-.87-.96-1.5-.61-1.74.96-3.21,3.21-5.39,2.95l.99.75c-.72-4.36,1.57-8.77,2.86-12.81,1.34-4.22,1.93-8.64-.38-12.64-.25-.43-.7-.53-1.16-.47-2.13.3-3.89,1.59-5.96,2.11l1.16,1.5c2.9-4.15,7.13-9.93,4.94-15.25-.31-.76-1.06-.95-1.71-.45-2.47,1.91-3.89,4.9-5.04,7.72-1.29,3.16-2.39,6.47-3.3,9.76s-1.63,6.73-2.26,10.13c-.45,2.42-.94,4.87-1.91,7.14-1.18,2.77-3.09,5.05-6.15,5.64-1.29.25-.75,2.22.54,1.97h0Z"/>
    <path class="cls-5" d="M29.99,143.45c1.55-.92,2.83-2.24,4.19-3.4.76-.64,2.69-2.48,3.82-1.84.8.46,1.08,1.55,1.93,2.03,1.21.68,2.52.08,3.56-.64l-1.5-.61c.53,1.84.36,3.77.53,5.66.06.69.85,1.39,1.54.88,3.75-2.73,8.2-4.49,12.62-5.81l-1.16-.47c.77,1.41,1.81,1.61,3.14,2.25.96.46,1.41,1.86,1.88,2.74s.86,1.82,1.85,2.28c1.65.77,3.4.4,4.99-.33,3.87-1.77,7.65-4.56,12.06-4.82.63-.04,1.56-.08,2.01.45.65.77.16,2.22-.08,3.03s.53,1.37,1.26,1.26c2.7-.42,4.4-2.65,6.9-3.45,2.77-.89,5.94-.1,8.77-.04,6.35.15,12.93.66,19.09-1.23l-1.26-.72c1.5,5.57,7.73,1.22,10.06-1.24.91-.96-.54-2.41-1.45-1.45-1.18,1.24-5.76,5.43-6.64,2.14-.14-.52-.73-.88-1.26-.72-3.1.96-6.28,1.28-9.52,1.3s-6.52-.01-9.76-.17c-2.75-.13-5.71-.71-8.41.08s-4.37,3.08-7.07,3.51l1.26,1.26c.55-1.83.87-4.32-1.04-5.5-1.59-.99-3.76-.58-5.47-.14-2.05.53-4.03,1.37-5.95,2.28s-6.47,4.44-8,2.23c-.77-1.11-1.21-2.43-2-3.53-.95-1.31-2.84-1.13-3.61-2.53-.21-.39-.73-.6-1.16-.47-4.57,1.36-9.23,3.19-13.11,6.01l1.54.88c-.19-2.08-.02-4.18-.6-6.2-.17-.59-.95-1-1.5-.61-1.15.8-1.47.82-2.27-.21-.67-.86-1.42-1.57-2.58-1.57-1.62,0-3.11,1.13-4.3,2.09-1.45,1.17-2.74,2.59-4.34,3.54-1.13.67-.1,2.45,1.03,1.77h0Z"/>
    <path class="cls-5" d="M29.24,169.46c-.5.49-1.02.94-1.09,1.67-.08.77.24,1.62,1.01,1.85,1.31.39,2.96-.24,4.15-.73,2.98-1.23,5.57-3.15,8.32-4.8l-1.4-.37c1.15,1.56-.02,3.86-.03,5.63,0,.67.66,1.15,1.3.99,1.11-.29,2.14-.98,3.08-1.61,1.06-.71,2.16-1.47,3.03-2.41,2.38-2.55,2.98-6.01,4.5-9.03l-1.87-.24c.63,1.8.38,3.8,1.02,5.61.74,2.11,2.38,2.97,4.56,2.65l-1.26-.72c.87,2.58.59,5.36,1.38,7.95.25.82,1.43,1.03,1.87.24.67-1.18,1.4-2.33,2.22-3.42.76-1.01,1.71-2.3,2.88-2.85.71-.33.92.03,1.49.35.62.35,1.23.41,1.93.44,1.84.09,3.68-.16,5.52-.11,3.02.09,5.48,1.94,8.43,2.33,1.44.19,2.84.05,4.28.07s1.8.43,1.62,1.91c-.07.59.53.96,1.02,1.02,3.47.42,5.68-3.15,9-3.24,1.32-.04,1.32-2.08,0-2.05-1.68.05-3.13.75-4.56,1.59s-2.76,1.84-4.44,1.64l1.02,1.02c.29-2.43-1.03-3.85-3.42-3.95-1.28-.05-2.56.11-3.84,0s-2.47-.52-3.65-1.02c-1.28-.54-2.56-1.06-3.94-1.25-1.74-.24-3.5-.08-5.25-.02-.73.03-1.62.14-2.34-.04-.49-.12-.85-.51-1.31-.71-1.08-.46-2.23-.06-3.14.59-2.28,1.61-3.94,4.27-5.3,6.66l1.87.24c-.79-2.6-.51-5.37-1.38-7.95-.19-.57-.68-.8-1.26-.72-3.11.45-2.4-4.97-3.05-6.83-.27-.77-1.45-1.09-1.87-.24-1.36,2.71-1.92,5.96-3.91,8.31-.75.88-1.67,1.56-2.62,2.21-.87.59-1.83,1.31-2.86,1.58l1.3.99c0-2.25,1.25-4.62-.25-6.66-.33-.44-.88-.68-1.4-.37-1.75,1.05-3.42,2.22-5.2,3.24-1.57.9-3.88,2.4-5.79,2.07l.72.72c-.18-.48.01-.44.37-.79.94-.92-.51-2.37-1.45-1.45h0Z"/>
    <g>
      <g>
        <rect class="cls-2" x="158.22" y="181.83" width="12.48" height="44.69"/>
        <rect class="cls-8" x="170.7" y="181.83" width="12.48" height="44.69"/>
        <polygon class="cls-4" points="170.7 207.66 158.22 226.53 183.18 226.53 170.7 207.66"/>
      </g>
      <polygon class="cls-1" points="170.7 128.22 176.16 135.5 183.99 130.87 186.26 139.68 195.27 138.4 193.98 147.41 202.8 149.67 198.16 157.5 205.44 162.97 198.16 168.43 202.8 176.26 193.98 178.52 195.27 187.54 186.26 186.25 183.99 195.07 176.16 190.43 170.7 197.71 165.24 190.43 157.4 195.07 155.14 186.25 146.13 187.54 147.41 178.52 138.6 176.26 143.23 168.43 135.95 162.97 143.23 157.5 138.6 149.67 147.41 147.41 146.13 138.4 155.14 139.68 157.4 130.87 165.24 135.5 170.7 128.22"/>
      <circle class="cls-7" cx="170.7" cy="162.97" r="23.07"/>
    </g>
  </g>
</svg>