<svg width="48" height="24" viewBox="0 0 48 24" fill="none" xmlns="http://www.w3.org/2000/svg">
<g clip-path="url(#clip0_239_11090)">
<path d="M34 6H30.83L29 4H23V6H28.12L29.95 8H34V20H18V11H16V20C16 21.1 16.9 22 18 22H34C35.1 22 36 21.1 36 20V8C36 6.9 35.1 6 34 6ZM21 14C21 16.76 23.24 19 26 19C28.76 19 31 16.76 31 14C31 11.24 28.76 9 26 9C23.24 9 21 11.24 21 14ZM26 11C27.65 11 29 12.35 29 14C29 15.65 27.65 17 26 17C24.35 17 23 15.65 23 14C23 12.35 24.35 11 26 11ZM18 6H21V4H18V1H16V4H13V6H16V9H18V6Z" fill="#323232"/>
</g>
<defs>
<clipPath id="clip0_239_11090">
<rect x="4" y="-0.0078125" width="40" height="24" rx="12" fill="white"/>
</clipPath>
</defs>
</svg>
