<?xml version="1.0" encoding="UTF-8"?><svg xmlns="http://www.w3.org/2000/svg" width="24px" height="24px" fill="none" stroke-width="1.5" viewBox="0 0 24 24" color="#000000"><path stroke="#000000" stroke-width="1.5" stroke-linecap="round" stroke-linejoin="round" d="M20 12V5.749a.6.6 0 0 0-.176-.425l-3.148-3.148A.6.6 0 0 0 16.252 2H4.6a.6.6 0 0 0-.6.6v18.8a.6.6 0 0 0 .6.6H11M8 10h8M8 6h4m-4 8h3M20.5 20.5 22 22"></path><path stroke="#000000" stroke-width="1.5" stroke-linecap="round" stroke-linejoin="round" d="M15 18a3 3 0 1 0 6 0 3 3 0 0 0-6 0ZM16 2v3.4a.6.6 0 0 0 .6.6H20"></path></svg>