<?xml version="1.0" encoding="UTF-8"?>
<svg id="Camada_1" xmlns="http://www.w3.org/2000/svg" version="1.1" viewBox="0 0 1080 812.6">
  <!-- Generator: Adobe Illustrator 29.0.1, SVG Export Plug-In . SVG Version: 2.1.0 Build 192)  -->
  <defs>
    <style>
      .st0 {
        fill: #00afef;
      }

      .st1 {
        fill: #fff;
      }
    </style>
  </defs>
  <g>
    <g>
      <path class="st0" d="M922.3,163.4l-25.5,144.4h23.4l25.5-144.4C961.7,73.2,901.4,0,811.1,0h-23.4c90.3,0,150.5,73.2,134.6,163.4Z"/>
      <polygon class="st0" points="272.6 649.3 266 686.6 382.5 541.7 359.1 541.7 272.6 649.3"/>
    </g>
    <g>
      <polygon class="st0" points="202.4 649.3 195.8 686.6 312.3 541.7 288.9 541.7 202.4 649.3"/>
      <path class="st0" d="M852.1,163.4l-25.5,144.4h23.4l25.5-144.4C891.5,73.2,831.2,0,740.9,0h-23.4c90.3,0,150.5,73.2,134.6,163.4Z"/>
    </g>
    <path class="st0" d="M670.7,0H232.7C142.4,0,56.3,73.2,40.4,163.4L2.5,378.2c-15.9,90.3,44.4,163.4,134.6,163.4h14l-25.6,144.9,116.5-144.9h333.1c90.3,0,176.3-73.2,192.2-163.4l37.9-214.8C821.3,73.2,761,0,670.7,0Z"/>
    <path class="st1" d="M258.1,407.4l-42.2-272.2h52.5l37.1,246.2h-26.1l127-246.2h46.7l37.9,246.2h-25.3l125.9-246.2h48.2l-138.2,272.2h-53.7l-35.1-222.1h14l-114.6,222.1h-54.1Z"/>
  </g>
  <g>
    <g>
      <path class="st1" d="M949.2,307.9h-255.2c-74.5,0-145.6,60.4-158.7,134.9l-20.1,113.8c-13.1,74.5,36.6,134.9,111.1,134.9h174.5l92.2,84,15.3-86.6c64.1-12.2,120.4-66.8,132-132.3l20.1-113.8c13.1-74.5-36.6-134.9-111.1-134.9Z"/>
      <path class="st0" d="M904.8,809.9l-110.8-100.9h-167.7c-40.9,0-76.9-16-101.3-45.1-24.8-29.6-34.5-68.8-27.1-110.5l20.1-113.8c7.1-40.1,29.2-77.6,62.3-105.7,33.1-28.2,73.5-43.7,113.7-43.7h255.2c40.9,0,76.9,16,101.3,45.1,24.8,29.6,34.5,68.8,27.1,110.5l-20.1,113.8c-11.8,67.2-67.2,125.9-134,143.8l-18.8,106.5ZM693.9,325.4c-66.3,0-129.7,54-141.4,120.4l-20.1,113.8c-5.5,31.2,1.4,60.3,19.5,81.8,17.6,21,44,32.5,74.4,32.5h181.3l73.7,67.1,11.8-67.1,11.9-2.3c58.2-11.1,107.9-60.8,118-118.2l20.1-113.8c5.5-31.2-1.4-60.3-19.5-81.8-17.6-21-44-32.5-74.4-32.5h-255.2Z"/>
    </g>
    <path class="st0" d="M672.9,606.8l6.7-38,152.5-149.7,3.6,21.4h-130.7l8.5-48.1h184.6l-6.7,38-152.5,149.7-3.6-21.4h138.1l-8.5,48.1h-192Z"/>
  </g>
</svg>